<?xml version="1.0" encoding="UTF-8"?>
<!DOCTYPE svg PUBLIC "-//W3C//DTD SVG 1.1//EN" "http://www.w3.org/Graphics/SVG/1.1/DTD/svg11.dtd">
<!-- Creator: CorelDRAW X6 -->
<svg xmlns="http://www.w3.org/2000/svg" xml:space="preserve" width="100%" height="100%" version="1.1" style="shape-rendering:geometricPrecision; text-rendering:geometricPrecision; image-rendering:optimizeQuality; fill-rule:evenodd; clip-rule:evenodd"
viewBox="0 0 500 500"
 xmlns:xlink="http://www.w3.org/1999/xlink">
 <defs>
  <style type="text/css">
   <![CDATA[
    .fil0 {fill:#202020}
   ]]>
  </style>
 </defs>
 <g id="Layer_x0020_1">
  <metadata id="CorelCorpID_0Corel-Layer"/>
  <path class="fil0" d="M70 46l43 0 0 45c-10,4 -16,13 -16,24 0,15 12,27 26,27 15,0 27,-12 27,-27 0,-11 -7,-20 -16,-24l0 -45 243 0 0 45c-9,4 -16,13 -16,24 0,15 12,27 26,27 15,0 27,-12 27,-27 0,-11 -7,-20 -16,-24l0 -45 32 0c17,0 31,15 31,32l0 370c0,18 -14,32 -31,32l-360 0c-17,0 -31,-14 -31,-32l0 -370c0,-17 14,-32 31,-32zm323 54c6,2 10,8 10,15 0,9 -7,16 -16,16 -8,0 -15,-7 -15,-16 0,-7 4,-13 10,-15l0 -75c0,-3 3,-5 5,-5l0 0c3,0 6,2 6,5l0 75zm-265 0c7,2 11,8 11,15 0,9 -7,16 -16,16 -9,0 -16,-7 -16,-16 0,-7 5,-13 11,-15l0 -75c0,-3 2,-5 5,-5l0 0c3,0 5,2 5,5l0 75zm-68 68l380 0 0 270c0,11 -9,21 -21,21l-338 0c-12,0 -21,-10 -21,-21l0 -270z"/>
 </g>
</svg>
