<svg version="1" xmlns="http://www.w3.org/2000/svg" width="300" height="400" viewBox="0 0 225 300"><g fill="#353535"><path d="M97 1.5c-16.6 2.4-33.2 8.7-47.7 18.1-9 5.8-27 24.6-32.6 34C-17.5 111 1 176.8 76.6 267.6c23.7 28.5 27 31.4 35.5 31.4 9.6 0 15.6-5.8 45.7-43.3 58.5-73.2 77.4-128.3 61-178.7C202.5 26.6 149.6-6.2 97 1.5zm39.5 20.4C164 29.3 188.7 51.1 199 77c6.5 16.1 8.6 35.9 5.6 53-4.6 26.5-19.8 58.3-43.3 90.8-16.1 22.1-46.7 59.2-48.9 59.2-.7 0-7-6.9-14.1-15.3-46.9-55.2-71-96.4-77.8-133.2-2.5-13.3-1.7-32.9 1.9-45C32.3 53.3 59.3 28.2 93 20.9c11.6-2.5 32-2 43.5 1z"/><path d="M100.3 55.5c-19.7 4.3-35.9 19.8-41.9 40.1-2.7 9.2-2.3 22.1 1 31.7 11.2 33.1 47.1 47.9 78.5 32.4 8.4-4.1 19.5-14.9 23.8-23.2 11.4-21.8 7.4-48.5-9.6-65.5-14.1-14-32.9-19.6-51.8-15.5zm22.7 9.1c21 4.7 36 23.7 36 45.4 0 36.8-40.7 59.3-71.5 39.5-15.7-10-24.2-28.5-21.5-46.3 3.4-22.2 23.2-39.5 45.8-40.1 2.4-.1 7.4.6 11.2 1.5z"/></g></svg>