<?xml version="1.0" ?><!DOCTYPE svg  PUBLIC '-//W3C//DTD SVG 1.1//EN'  'http://www.w3.org/Graphics/SVG/1.1/DTD/svg11.dtd'><svg enable-background="new 0 0 128 128" id="Слой_1" version="1.1" viewBox="0 0 128 128" xml:space="preserve" xmlns="http://www.w3.org/2000/svg" xmlns:xlink="http://www.w3.org/1999/xlink"><g><g><g><circle cx="64" cy="64" fill="#FFFFFF" r="47.5"/></g></g><g><g><path d="M64,67c-1.7,0-3-1.3-3-3V34c0-1.7,1.3-3,3-3s3,1.3,3,3v30C67,65.7,65.7,67,64,67z" fill="#454B54"/></g></g><g><g><path d="M84,67H64c-1.7,0-3-1.3-3-3s1.3-3,3-3h20c1.7,0,3,1.3,3,3S85.7,67,84,67z" fill="#454B54"/></g></g><g><g><circle cx="64" cy="64" fill="#454B54" r="6"/></g></g><g><g><path d="M64,114.5c-27.8,0-50.5-22.7-50.5-50.5S36.2,13.5,64,13.5s50.5,22.7,50.5,50.5S91.8,114.5,64,114.5z      M64,19.5c-24.5,0-44.5,20-44.5,44.5s20,44.5,44.5,44.5s44.5-20,44.5-44.5S88.5,19.5,64,19.5z" fill="#454B54"/></g></g></g></svg>